<svg
   xml:space="preserve"
   width="8.16418in"
   height="5.31822in"
   version="1.1"
   style="shape-rendering:geometricPrecision; text-rendering:geometricPrecision; image-rendering:optimizeQuality; fill-rule:evenodd; clip-rule:evenodd"
   viewBox="0 0 8086.11 5267.36"
   id="svg10"
   sodipodi:docname="Powerwash-by-Eli-Logo.svg"
   inkscape:version="1.2 (dc2aedaf03, 2022-05-15)"
   xmlns:inkscape="http://www.inkscape.org/namespaces/inkscape"
   xmlns:sodipodi="http://sodipodi.sourceforge.net/DTD/sodipodi-0.dtd"
   xmlns="http://www.w3.org/2000/svg"
   xmlns:svg="http://www.w3.org/2000/svg"><sodipodi:namedview
   id="namedview12"
   pagecolor="#505050"
   bordercolor="#eeeeee"
   borderopacity="1"
   inkscape:showpageshadow="0"
   inkscape:pageopacity="0"
   inkscape:pagecheckerboard="0"
   inkscape:deskcolor="#505050"
   inkscape:document-units="in"
   showgrid="false"
   inkscape:zoom="1.0916579"
   inkscape:cx="438.78213"
   inkscape:cy="148.39813"
   inkscape:window-width="1920"
   inkscape:window-height="1009"
   inkscape:window-x="-8"
   inkscape:window-y="-8"
   inkscape:window-maximized="1"
   inkscape:current-layer="Layer_x0020_1" />
 <defs
   id="defs4">
  <style
   type="text/css"
   id="style2">
   <![CDATA[
    .str0 {stroke:#282829;stroke-width:2.97;stroke-miterlimit:2.61313}
    .fil0 {fill:#282829}
   ]]>
  </style>
 </defs>
 <g
   id="Layer_x0020_1"
   inkscape:label="Layer 1">
  <metadata
   id="CorelCorpID_0Corel-Layer" />
  <path
   class="fil0 str0"
   d="M5417.53 5250.6c-269.78,43.76 -469.72,-6.11 -600.97,-149.96 -47.54,-51.15 -76.82,-110.71 -87.93,-179.22 -8.01,-49.39 -2.12,-123.93 17.33,-222.46 20.06,-98.09 115.1,-231.23 285.91,-397.93 104.01,-101.35 240.57,-203.62 410.05,-307.96 -54.52,-13.51 -130.89,-24.01 -230.18,-31.34 -94.7,-5.9 -192.48,-17.29 -293.76,-33.56 -101.38,-16.8 -189.17,-47.26 -264.06,-92.33 -74.81,-44.55 -119.53,-111.96 -134.01,-201.18 -8.3,-84.77 25.02,-161.57 99.89,-230.95 74.95,-68.84 172.75,-124.49 294.02,-166.51 73.26,-25.51 149.14,-44.9 226.67,-57.48 42.06,-6.82 99.71,-12.13 172.55,-16.22 -166,-233.23 1.04,-458.18 -69.34,-692.93 -93.89,-313.17 -628.62,-145.63 -736.94,-912.24 -218.84,-22.15 -202.47,-162.06 -347.03,-424.56 -18.87,-34.26 -25.01,-49.32 -40.95,-80.93 -27.45,-54.44 -12.37,-46.65 -80.44,-50.54 34.16,67.77 120.4,268.31 -5.86,300.79 -37.34,-60.3 32.67,-65.01 3.86,-182.81 -14.7,-60.1 -49.32,-110.77 -116.85,-117.01 -70.51,-6.52 -162.27,5.12 -234.76,0.09 -84.14,-5.83 -129.41,-75.37 -130.02,-77.97 -3.22,-13.74 -492.35,-8.79 -543.88,-9.37 -148.3,-1.65 -174.71,34.27 -175.17,34.45 -20.23,7.84 -32.69,6.67 -57.61,6.97 -93.65,1.12 -291.18,24.78 -368.95,-25.43 -23.12,-14.93 -7.85,-13.37 -45.12,-17.93l-866.25 -1.33c-54.43,13.94 -7.95,3.69 -55.02,49.72 -59.95,-4.92 -216.52,-36.64 -255.09,-60.43 -17.51,-125.83 -33.42,-123.64 260.06,-172.77 42.62,65.51 -6.34,35.3 50.05,54.27l798.3 -0.18c204.14,2.02 38.83,-44.02 218.82,-43.29 86.21,0.35 194.27,-5.08 277.26,-0.16 121.13,7.19 21.5,17.43 98.43,38.67l643.23 2.29c91.47,-7.65 39.6,-55.66 219.76,-54.42l518.84 5.49c46.77,14.73 286.02,397.98 326.82,457.81 148.23,217.4 64.65,241.24 -16.57,350.48 65.22,245.79 94.26,412.17 264.75,530.27 164.59,114 375.01,153.4 457.96,339.19 100.24,224.5 -71.22,454.01 60.49,681.55 13.95,24.1 32.25,48.19 53.95,71.76 69.63,5.57 142.62,23.47 219.48,54.06 100.21,39.4 169.93,106.95 209,201.66l0.51 1.89c22.95,41.36 3.85,122.94 -292.65,-51.24 -53.05,-31.16 -97.56,-62.09 -134.96,-92.84 -19.11,1.94 -38.86,4.56 -59.29,7.87 -33.99,5.51 -90.04,19.51 -168.76,41.54 -78.11,22.48 -163.72,62.53 -255.69,120.51 -92.5,58.06 -147.06,114.87 -164.89,169.55 -0.74,8.84 -0.51,16.98 0.6,23.88 5.77,35.58 38.16,70.66 96.66,105.32 59.02,34.58 135.74,67.37 230.15,98.38 94.42,31.01 180.98,57.3 260.4,79.85 47.97,13.48 86.92,25.14 117.31,34.39 30.39,9.24 46.09,18.68 47.64,28.24 0.17,1.06 0.69,4.25 0.94,9.11 0.33,5.4 -13.16,16.31 -40.56,32.2 -183.24,116.93 -307.6,240.66 -374.24,370.83 -56.83,113.32 -77.81,219.19 -61.79,317.96 3.88,23.9 18.17,71.72 42.81,142.95 24.19,71.83 92.63,137.58 204.17,196.88 93.1,49.76 197.57,65.51 312.81,46.82 124.27,-20.16 233.39,-76.55 326.75,-169.64 73.46,-71.32 122.91,-156.19 148.99,-254.17 14.84,-56.37 17.75,-115.71 7.85,-176.77 -6.89,-42.49 -20.59,-86.59 -40.55,-132.41l-2.89 -7.71c-0.95,-5.84 0.14,-12.56 3.35,-19.62 3.14,-10.87 11.84,-17.73 25.12,-19.89 16.99,-2.76 28.99,4.02 36.97,19.62 27.06,62.65 45.38,121.81 54.51,178.1 28.43,175.25 -27.87,328.82 -168.19,461.67 -147.43,139.46 -342.14,229.36 -583.77,268.56zm351.66 -1867.53c-46.26,-62.51 -118.05,-98.46 -215.41,-108.03 66.04,44.02 140.89,81.71 215.41,108.03zm-4732 -2658.26c-50.69,-43.71 -114.49,-123.75 -168.65,-178.64l-452.19 -469.34c-30.63,-29.1 -65.77,-103.1 -101.24,-64.46 -23.63,25.74 42.62,75.28 60.33,91.16 219.18,196.48 440.57,433.33 661.74,621.27zm-730.55 947.22c0.42,0.33 29.01,19.82 35.59,24.66 54.67,-48.09 85.01,-96.01 137.36,-143.05 48.66,-43.72 377.06,-381.21 400.31,-432.61 -100.08,77.33 -209.02,187.84 -298.82,273.4l-138.08 136.28c-28.76,26.94 -123.1,105.71 -136.36,141.32zm-304.96 -833.33c6.77,23.72 -16.79,37.16 92.41,32.31 46.19,-2.05 91.8,-4.15 138.08,-4.64 86.25,-0.93 171.19,-1.45 257.51,-4.39 174.62,-5.93 349.59,-7.06 523.82,-17.2 -223.7,7.35 -795.15,-34.03 -961.24,-23.49 -13.37,0.85 -12.64,-0.18 -24.36,2.71 -33.72,8.31 -7.28,-1.77 -26.23,14.71zm85.5 -439.88c26.97,24.46 739.77,317.25 805.4,332.81 -2.66,-2.38 -6.85,-9.46 -8.24,-6.84 -1.37,2.58 -6.26,-5.4 -8.19,-6.65 -10.66,-6.87 -17.76,-10.79 -27.29,-15.82l-740.49 -341.29 -21.19 37.79zm-0.64 893.83l18.33 38.81c127.29,-63.9 264.09,-117.51 395.28,-182.95l366.8 -169.83c30.28,-18.76 9.81,-5.58 24.65,-18.89 -65.99,14.67 -777.75,307.86 -805.06,332.85zm7371.59 2910.26l-2.87 0c27.68,73.51 68.77,131.79 123.47,174.98 62.61,43.26 119.85,60.13 172.96,51.52 13.27,-2.16 26.29,-5.9 38.08,-10.54 63.8,-26.7 118.84,-73.78 163.98,-141.6 43.43,-61.55 86.43,-145.91 130.14,-252.75 0.73,-5.57 1.02,-10.52 0.42,-14.24 -1.55,-9.56 -6.39,-15.86 -15.58,-18.73 -4.68,-1.97 -9.18,-2.87 -12.9,-2.27 -9.56,1.55 -16.39,6.47 -19.79,15.75 -60.98,151.6 -126.28,259.76 -196.52,324.01 -31.88,28.61 -55.38,44.96 -70.61,48.52l-23.36 3.79c-37.17,6.03 -60.58,-20.69 -70.15,-79.64 -13.53,-83.38 2.17,-215.09 47.53,-395.77l7.13 -33.31c4.42,-19.79 5.12,-38.98 2.11,-57.57 -3.36,-20.71 -11.5,-40.65 -24.25,-58.75 -22.32,-33.44 -54.77,-55.43 -96.74,-65.52 -19.79,-4.42 -38.98,-5.12 -58.1,-2.02 -19.65,3.19 -38.52,11.16 -56.62,23.9 -34.5,22.49 -56.49,54.95 -65.52,96.75 -19.33,92.52 -21.49,183.34 -7.02,272.57 1.96,12.06 4.16,23.84 6.61,35.34l0 -5.45c-34.44,150.62 -101.26,286.67 -200.98,408.22 -100.12,121.98 -212.37,206.14 -335.86,251.24 -19.13,6.38 -37.46,10.98 -54.98,13.82 -99.84,16.2 -181.25,-15.29 -243.71,-94.54 -75.04,-93.02 -127.01,-225.21 -156.87,-395.87 200.28,-69 365.56,-205.91 495.23,-411.16 83.37,-134.52 142.18,-275.96 175.63,-422.55 35.33,-151.8 42.73,-287.62 23.17,-408.18 -22.48,-138.6 -78.4,-238 -167.47,-296.58 -57.53,-32.09 -115.59,-43.93 -173.47,-34.54 -27.08,4.39 -54.63,12.68 -82.1,24.76 -166.98,79.41 -296.94,208.95 -389.8,389.16 -92.41,179.59 -147.6,363.5 -165.22,550.57 -17.7,186.55 -14.79,352.31 8.64,496.76 43.24,266.59 132.73,455.37 268.99,566.26 107.79,86.61 230.78,118.99 368.85,96.59 33.99,-5.51 69.67,-14.03 107.57,-25.63l1.59 -0.26c133.32,-48.33 253.91,-138.2 361.86,-269.08 84.86,-104.91 147.04,-220.81 186.54,-347.97zm-1028.37 40.33c187.09,-66.32 340.49,-195.85 460.9,-387.61 79.9,-129.05 136.29,-265.19 169.2,-408.42 32.37,-143.15 39.83,-271.89 21.31,-386.07 -20.33,-125.33 -68.24,-212.39 -143.13,-260.74 -38.35,-28.12 -85.1,-37.43 -140.33,-28.47 -118.43,19.21 -210.97,127.42 -277.63,324.63 -54.38,158.7 -90.02,342.16 -106.4,550.3 -16.91,208.22 -11.32,407.34 16.07,596.38zm1182.56 -595.69c-30.27,4.91 -57.38,-4.32 -81.17,-26.62 -20,-19.1 -32.63,-43.22 -37.36,-72.42 -4.74,-29.21 -0.38,-56.08 12.55,-80.52 15.69,-27.62 38.58,-44.41 68.85,-49.32 29.74,-4.83 56.77,3.87 80.38,25.11 20.53,19.02 32.63,43.22 37.37,72.42 4.74,29.21 0.9,55.99 -12.56,80.52 -15.52,28.68 -38.32,46 -68.06,50.83z"
   id="path7"
   style="fill:#000000" />
 </g>
</svg>
